<?xml version="1.0" encoding="UTF-8" standalone="no"?>
<!DOCTYPE svg PUBLIC "-//W3C//DTD SVG 1.1//EN"
 "http://www.w3.org/Graphics/SVG/1.1/DTD/svg11.dtd">
<!-- Generated by graphviz version 6.0.1 (20220911.1526)
 -->
<!-- Pages: 1 -->
<svg width="328pt" height="260pt"
 viewBox="0.00 0.00 327.74 260.00" xmlns="http://www.w3.org/2000/svg" xmlns:xlink="http://www.w3.org/1999/xlink">
<g id="graph0" class="graph" transform="scale(1 1) rotate(0) translate(4 256)">
<polygon fill="white" stroke="none" points="-4,4 -4,-256 323.74,-256 323.74,4 -4,4"/>
<!-- Weather -->
<g id="node1" class="node">
<title>Weather</title>
<ellipse fill="none" stroke="black" cx="191.15" cy="-234" rx="40.09" ry="18"/>
<text text-anchor="middle" x="191.15" y="-230.3" font-family="Times,serif" font-size="14.00">Weather</text>
</g>
<!-- Sunny -->
<g id="node2" class="node">
<title>Sunny</title>
<ellipse fill="none" stroke="black" cx="108.15" cy="-162" rx="33.29" ry="18"/>
<text text-anchor="middle" x="108.15" y="-158.3" font-family="Times,serif" font-size="14.00">Sunny</text>
</g>
<!-- Weather&#45;&gt;Sunny -->
<g id="edge1" class="edge">
<title>Weather&#45;&gt;Sunny</title>
<path fill="none" stroke="black" d="M173.14,-217.81C161.37,-207.89 145.85,-194.8 132.93,-183.9"/>
<polygon fill="black" stroke="black" points="135.17,-181.21 125.27,-177.44 130.66,-186.56 135.17,-181.21"/>
</g>
<!-- Rainy -->
<g id="node3" class="node">
<title>Rainy</title>
<ellipse fill="none" stroke="black" cx="191.15" cy="-162" rx="31.7" ry="18"/>
<text text-anchor="middle" x="191.15" y="-158.3" font-family="Times,serif" font-size="14.00">Rainy</text>
</g>
<!-- Weather&#45;&gt;Rainy -->
<g id="edge2" class="edge">
<title>Weather&#45;&gt;Rainy</title>
<path fill="none" stroke="black" d="M191.15,-215.7C191.15,-207.98 191.15,-198.71 191.15,-190.11"/>
<polygon fill="black" stroke="black" points="194.65,-190.1 191.15,-180.1 187.65,-190.1 194.65,-190.1"/>
</g>
<!-- Snowy -->
<g id="node4" class="node">
<title>Snowy</title>
<ellipse fill="none" stroke="black" cx="277.15" cy="-162" rx="35.19" ry="18"/>
<text text-anchor="middle" x="277.15" y="-158.3" font-family="Times,serif" font-size="14.00">Snowy</text>
</g>
<!-- Weather&#45;&gt;Snowy -->
<g id="edge3" class="edge">
<title>Weather&#45;&gt;Snowy</title>
<path fill="none" stroke="black" d="M209.81,-217.81C221.92,-207.95 237.87,-194.97 251.2,-184.12"/>
<polygon fill="black" stroke="black" points="253.57,-186.71 259.11,-177.68 249.15,-181.28 253.57,-186.71"/>
</g>
<!-- Warm -->
<g id="node5" class="node">
<title>Warm</title>
<ellipse fill="none" stroke="black" cx="33.15" cy="-90" rx="33.29" ry="18"/>
<text text-anchor="middle" x="33.15" y="-86.3" font-family="Times,serif" font-size="14.00">Warm</text>
</g>
<!-- Sunny&#45;&gt;Warm -->
<g id="edge4" class="edge">
<title>Sunny&#45;&gt;Warm</title>
<path fill="none" stroke="black" d="M92.24,-146.15C81.9,-136.5 68.24,-123.75 56.65,-112.94"/>
<polygon fill="black" stroke="black" points="58.73,-110.09 49.03,-105.82 53.95,-115.21 58.73,-110.09"/>
</g>
<!-- Cool -->
<g id="node6" class="node">
<title>Cool</title>
<ellipse fill="none" stroke="black" cx="112.15" cy="-90" rx="27.9" ry="18"/>
<text text-anchor="middle" x="112.15" y="-86.3" font-family="Times,serif" font-size="14.00">Cool</text>
</g>
<!-- Sunny&#45;&gt;Cool -->
<g id="edge5" class="edge">
<title>Sunny&#45;&gt;Cool</title>
<path fill="none" stroke="black" d="M109.14,-143.7C109.58,-135.98 110.11,-126.71 110.6,-118.11"/>
<polygon fill="black" stroke="black" points="114.09,-118.29 111.17,-108.1 107.1,-117.89 114.09,-118.29"/>
</g>
<!-- Cold -->
<g id="node7" class="node">
<title>Cold</title>
<ellipse fill="none" stroke="black" cx="190.15" cy="-90" rx="27.9" ry="18"/>
<text text-anchor="middle" x="190.15" y="-86.3" font-family="Times,serif" font-size="14.00">Cold</text>
</g>
<!-- Rainy&#45;&gt;Cold -->
<g id="edge6" class="edge">
<title>Rainy&#45;&gt;Cold</title>
<path fill="none" stroke="black" d="M190.9,-143.7C190.79,-135.98 190.66,-126.71 190.53,-118.11"/>
<polygon fill="black" stroke="black" points="194.03,-118.05 190.39,-108.1 187.03,-118.15 194.03,-118.05"/>
</g>
<!-- Freezing -->
<g id="node8" class="node">
<title>Freezing</title>
<ellipse fill="none" stroke="black" cx="278.15" cy="-90" rx="41.69" ry="18"/>
<text text-anchor="middle" x="278.15" y="-86.3" font-family="Times,serif" font-size="14.00">Freezing</text>
</g>
<!-- Snowy&#45;&gt;Freezing -->
<g id="edge7" class="edge">
<title>Snowy&#45;&gt;Freezing</title>
<path fill="none" stroke="black" d="M277.39,-143.7C277.5,-135.98 277.64,-126.71 277.76,-118.11"/>
<polygon fill="black" stroke="black" points="281.26,-118.15 277.9,-108.1 274.26,-118.05 281.26,-118.15"/>
</g>
<!-- Yes -->
<g id="node9" class="node">
<title>Yes</title>
<ellipse fill="none" stroke="black" cx="73.15" cy="-18" rx="27" ry="18"/>
<text text-anchor="middle" x="73.15" y="-14.3" font-family="Times,serif" font-size="14.00">Yes</text>
</g>
<!-- Warm&#45;&gt;Yes -->
<g id="edge8" class="edge">
<title>Warm&#45;&gt;Yes</title>
<path fill="none" stroke="black" d="M42.63,-72.41C47.48,-63.92 53.48,-53.41 58.88,-43.96"/>
<polygon fill="black" stroke="black" points="62.09,-45.41 64.01,-34.99 56.01,-41.93 62.09,-45.41"/>
</g>
<!-- Cool&#45;&gt;Yes -->
<g id="edge9" class="edge">
<title>Cool&#45;&gt;Yes</title>
<path fill="none" stroke="black" d="M103.1,-72.76C98.33,-64.19 92.37,-53.49 87.02,-43.9"/>
<polygon fill="black" stroke="black" points="90.07,-42.18 82.14,-35.15 83.95,-45.59 90.07,-42.18"/>
</g>
<!-- No -->
<g id="node10" class="node">
<title>No</title>
<ellipse fill="none" stroke="black" cx="234.15" cy="-18" rx="27" ry="18"/>
<text text-anchor="middle" x="234.15" y="-14.3" font-family="Times,serif" font-size="14.00">No</text>
</g>
<!-- Cold&#45;&gt;No -->
<g id="edge10" class="edge">
<title>Cold&#45;&gt;No</title>
<path fill="none" stroke="black" d="M200.13,-73.12C205.64,-64.34 212.61,-53.26 218.8,-43.42"/>
<polygon fill="black" stroke="black" points="221.84,-45.15 224.2,-34.82 215.92,-41.42 221.84,-45.15"/>
</g>
<!-- Freezing&#45;&gt;No -->
<g id="edge11" class="edge">
<title>Freezing&#45;&gt;No</title>
<path fill="none" stroke="black" d="M267.72,-72.41C262.33,-63.83 255.64,-53.19 249.65,-43.67"/>
<polygon fill="black" stroke="black" points="252.48,-41.59 244.2,-34.99 246.56,-45.32 252.48,-41.59"/>
</g>
</g>
</svg>
